<?xml version="1.0" standalone="no"?>
<!DOCTYPE svg PUBLIC "-//W3C//DTD SVG 20010904//EN"
 "http://www.w3.org/TR/2001/REC-SVG-20010904/DTD/svg10.dtd">
<svg version="1.0" xmlns="http://www.w3.org/2000/svg"
 width="601.000000pt" height="601.000000pt" viewBox="0 0 601.000000 601.000000"
 preserveAspectRatio="xMidYMid meet">
<metadata>
Created by potrace 1.14, written by Peter Selinger 2001-2017
</metadata>
<g transform="translate(0.000000,601.000000) scale(0.100000,-0.100000)"
fill="#000000" stroke="none">
<path d="M2847 5813 c-3 -3 -23 -6 -45 -8 -133 -11 -334 -71 -490 -147 -220
-107 -404 -256 -554 -448 -79 -101 -69 -86 -158 -240 -34 -58 -65 -112 -71
-120 -40 -65 -249 -435 -249 -441 0 -5 -4 -9 -8 -9 -4 0 -13 -12 -20 -27 -6
-16 -22 -46 -35 -68 -13 -22 -55 -94 -92 -160 -38 -66 -72 -122 -75 -125 -3
-3 -12 -18 -20 -35 -8 -16 -17 -32 -21 -35 -5 -5 -40 -70 -63 -117 -6 -13 -14
-23 -18 -23 -5 0 -8 -4 -8 -9 0 -8 -182 -329 -210 -371 -6 -8 -13 -22 -17 -30
-4 -8 -9 -17 -12 -20 -3 -3 -14 -21 -25 -40 -36 -67 -69 -125 -102 -181 -19
-31 -34 -61 -34 -67 0 -6 -4 -12 -8 -14 -7 -3 -19 -22 -89 -148 -14 -25 -32
-52 -39 -61 -8 -8 -14 -19 -14 -22 0 -4 -33 -65 -74 -135 -112 -194 -133 -233
-161 -308 -15 -38 -33 -83 -40 -99 -8 -17 -16 -42 -19 -55 -3 -14 -10 -45 -17
-70 -16 -65 -19 -81 -24 -115 -3 -16 -7 -41 -11 -55 -10 -46 -13 -334 -3 -395
5 -33 11 -73 14 -90 13 -80 31 -153 65 -255 24 -71 127 -287 147 -308 7 -7 13
-17 13 -21 0 -4 8 -18 17 -29 10 -12 29 -38 43 -57 58 -83 207 -239 280 -294
19 -14 44 -34 54 -43 11 -10 26 -18 33 -18 7 0 13 -4 13 -9 0 -6 11 -16 24
-23 14 -7 54 -30 89 -50 36 -21 70 -38 76 -38 6 0 11 -5 11 -12 0 -6 3 -8 7
-5 3 4 11 3 18 -3 28 -23 263 -104 340 -116 11 -2 47 -8 80 -14 95 -18 356
-21 465 -5 111 17 116 18 195 39 33 9 67 18 75 20 8 3 36 13 63 25 26 11 47
18 47 16 0 -3 25 9 55 25 30 16 55 28 55 25 0 -3 18 6 40 20 22 14 43 25 46
25 4 0 22 11 40 25 18 14 37 25 41 25 5 0 18 8 29 18 10 9 44 35 74 57 70 51
212 193 270 270 25 33 47 62 50 65 11 11 50 69 50 75 0 3 12 24 28 48 15 23
30 49 33 57 4 10 15 -3 34 -40 170 -339 515 -632 896 -760 30 -10 66 -21 80
-24 13 -3 51 -13 84 -22 77 -21 511 -32 595 -15 30 7 69 14 85 16 17 3 44 10
61 15 17 6 40 12 50 15 71 14 344 136 352 157 2 4 8 8 14 8 13 0 90 53 173
119 205 165 371 386 473 632 28 69 78 228 87 281 2 13 7 41 11 63 15 84 13
447 -1 523 -23 117 -45 199 -71 267 -4 11 -8 22 -9 25 -10 30 -24 60 -66 145
-46 94 -63 125 -124 228 -14 23 -28 50 -32 60 -3 9 -9 17 -14 17 -5 0 -9 5 -9
11 0 7 -18 40 -40 75 -22 35 -40 65 -40 68 0 2 -36 65 -80 141 -44 76 -80 141
-80 146 0 5 -3 9 -8 9 -4 0 -13 14 -21 30 -11 26 -65 121 -116 205 -7 11 -12
24 -13 29 0 5 -4 12 -9 15 -4 3 -13 15 -19 26 -15 26 -152 263 -181 313 -12
20 -25 43 -29 51 -4 8 -129 224 -277 480 -148 256 -283 491 -300 521 -46 84
-157 262 -181 291 -11 14 -34 43 -51 64 -49 63 -184 192 -260 249 -135 102
-290 185 -445 240 -52 18 -226 61 -285 71 -49 8 -382 15 -388 8z m215 -1444
c10 -5 18 -7 18 -3 0 14 56 -55 81 -101 17 -30 17 -31 -38 -125 -30 -52 -61
-105 -69 -117 -8 -13 -14 -25 -14 -28 0 -3 -15 -29 -33 -57 -18 -29 -41 -70
-52 -90 -11 -21 -23 -38 -27 -38 -5 0 -8 -8 -8 -18 0 -10 -8 -27 -17 -38 -10
-10 -34 -49 -53 -87 -19 -37 -38 -67 -42 -67 -5 0 -8 -4 -8 -10 0 -10 -249
-444 -282 -492 -11 -16 -16 -28 -12 -28 4 0 0 -8 -8 -17 -13 -16 -44 -68 -125
-213 -11 -19 -48 -82 -82 -138 -33 -57 -61 -106 -61 -108 0 -2 -13 -25 -29
-51 -66 -108 -321 -556 -321 -564 0 -5 -4 -9 -10 -9 -5 0 -10 -6 -10 -14 0 -7
-7 -19 -15 -26 -9 -7 -13 -15 -10 -18 3 -3 -1 -12 -8 -21 -8 -9 -35 -54 -62
-101 -74 -131 -93 -150 -160 -162 -79 -15 -168 63 -169 147 0 24 16 85 22 85
4 0 18 21 32 48 13 26 39 70 57 99 18 29 33 54 33 57 0 5 97 175 129 226 6 8
38 65 73 125 34 61 67 118 73 127 24 41 124 216 143 250 12 20 32 55 46 77 15
22 26 43 26 46 0 3 11 22 23 43 13 20 59 98 102 172 81 140 255 442 285 495
10 17 31 54 49 83 17 29 31 56 31 59 0 4 6 14 14 22 7 9 27 41 43 71 52 95
167 295 173 300 3 3 12 19 20 35 8 17 18 32 21 35 3 3 14 22 24 42 44 94 134
136 207 97z m988 -1643 c0 -2 21 -40 46 -83 40 -67 235 -404 296 -513 11 -19
56 -97 100 -172 68 -117 80 -144 80 -183 0 -103 -97 -173 -193 -139 -47 16
-53 22 -106 99 -105 154 -265 267 -424 301 -95 20 -126 23 -193 20 -42 -1 -76
-1 -76 1 0 5 60 115 70 128 5 6 23 37 40 70 18 33 43 76 55 95 12 19 60 100
105 179 118 207 116 203 136 238 l18 31 23 -33 c13 -19 23 -36 23 -39z"/>
</g>
</svg>
